<svg xmlns="http://www.w3.org/2000/svg" width="1080" height="1920" viewBox="0 0 1080 1920">
<title>2026-09-18-am scene 2 pose 2</title>
<rect width="1080" height="1920" fill="#F7EDD9"/>
<path d="M0 170 C230 140 430 190 650 150 S910 125 1080 170" fill="none" stroke="#E6D6B8" stroke-width="8" opacity=".42"/>
<path d="M0 1740 C250 1695 470 1760 700 1720 S930 1700 1080 1748" fill="none" stroke="#E6D6B8" stroke-width="8" opacity=".35"/>
<path d="M80 1660 C350 1600 730 1650 1010 1608" fill="none" stroke="#D9C7A7" stroke-width="16" opacity=".45"/><g id="background-shelves" opacity=".82">
<path d="M40 370 L550 340 L550 1510 L30 1540 Z" fill="#D7C6A9" stroke="#171512" stroke-width="8"/>
<path d="M42 700 L548 670 M38 1035 L550 1004 M35 1360 L550 1330" stroke="#635D56" stroke-width="14"/>
<g fill="#D74332" stroke="#171512" stroke-width="5">
<path d="M82 470 L170 455 L180 625 L91 634 Z"/><path d="M206 452 L300 440 L309 615 L217 626 Z"/><path d="M340 436 L440 425 L448 604 L351 616 Z"/>
<path d="M74 815 L165 804 L173 968 L82 977 Z"/><path d="M208 799 L304 788 L312 960 L218 969 Z"/><path d="M351 782 L445 773 L452 949 L360 957 Z"/>
</g>
</g><g id="menu-board">
<path d="M610 265 Q590 281 594 319 L602 1061 Q610 1085 650 1077 L972 1081 Q993 1073 988 1035 L982 307 Q980 271 940 273 Z" fill="#242220" stroke="#171512" stroke-width="10" stroke-linejoin="round"/>
<text x="632" y="360" font-family="Arial,sans-serif" font-size="62" font-weight="900" fill="#FFF9ED">TRE TAGLIE</text>
<path d="M628 387 C740 374 850 397 948 382" fill="none" stroke="#D74332" stroke-width="12" stroke-linecap="round"/>
<path d="M625 400 Q640 380 673 389 L948 393 Q970 410 956 447 L948 539 Q938 562 905 553 L662 558 Q632 557 628 527 Z" fill="#FFF9ED" stroke="#171512" stroke-width="7" stroke-linejoin="round"/>
<text x="662" y="480" font-family="Arial,sans-serif" font-size="52" font-weight="800" fill="#171512">PICCOLA</text>
<text x="818" y="491" font-family="Arial,sans-serif" font-size="56" font-weight="900" fill="#171512">3 €</text>
<path d="M625 585 Q640 565 673 574 L948 578 Q970 595 956 632 L948 724 Q938 747 905 738 L662 743 Q632 742 628 712 Z" fill="#FFF9ED" stroke="#171512" stroke-width="7" stroke-linejoin="round"/>
<text x="662" y="665" font-family="Arial,sans-serif" font-size="52" font-weight="800" fill="#171512">MEDIA</text>
<text x="818" y="676" font-family="Arial,sans-serif" font-size="56" font-weight="900" fill="#171512">5,50 €</text>
<path d="M625 770 Q640 750 673 759 L948 763 Q970 780 956 817 L948 909 Q938 932 905 923 L662 928 Q632 927 628 897 Z" fill="#D74332" stroke="#171512" stroke-width="7" stroke-linejoin="round"/>
<text x="662" y="850" font-family="Arial,sans-serif" font-size="52" font-weight="800" fill="#FFF9ED">GRANDE</text>
<text x="818" y="861" font-family="Arial,sans-serif" font-size="56" font-weight="900" fill="#FFF9ED">6 €</text>
</g><g id="character" transform="translate(50 700) scale(0.94 0.94)">
<!-- hoodie torso -->
<path d="M118 1024 C86 902 92 771 153 682 C191 627 340 622 389 686 C452 770 458 901 428 1025 Z" fill="#171717" stroke="#171512" stroke-width="11" stroke-linejoin="round"/>
<path d="M178 704 C212 746 315 749 357 703 C344 664 329 641 267 640 C211 641 191 663 178 704 Z" fill="#292725" stroke="#171512" stroke-width="9"/>
<path d="M199 714 C213 757 229 803 235 879" fill="none" stroke="#56504A" stroke-width="6" opacity=".8"/>
<path d="M340 714 C324 760 309 810 304 882" fill="none" stroke="#56504A" stroke-width="6" opacity=".8"/>
<!-- neck -->
<path d="M225 574 C230 628 225 658 205 684 C242 719 306 722 342 685 C323 653 319 620 326 574 Z" fill="#D8895F" stroke="#171512" stroke-width="9"/>
<!-- head -->
<g id="head" transform="rotate(4 275 360)">
<path d="M155 250 C164 177 225 127 311 132 C395 137 445 202 438 302 C430 420 371 543 279 559 C199 550 154 466 139 362 C132 314 134 277 155 250 Z" fill="#F1B17F" stroke="#171512" stroke-width="11" stroke-linejoin="round"/>
<!-- ear -->
<path d="M144 337 C105 321 95 369 113 407 C128 438 157 430 169 402" fill="#F1B17F" stroke="#171512" stroke-width="9"/>
<!-- hair mass -->
<path d="M142 286 C120 230 150 168 205 131 C242 81 318 67 361 112 C418 105 458 153 449 205 C480 240 458 293 425 309 C407 264 382 229 345 207 C333 246 296 264 259 261 C225 282 187 296 142 286 Z" fill="#171717" stroke="#171512" stroke-width="11" stroke-linejoin="round"/>
<path d="M171 209 C207 158 243 135 286 127 C257 163 247 195 249 231" fill="none" stroke="#5B3A2A" stroke-width="8" stroke-linecap="round"/>
<path d="M254 127 C309 89 360 106 392 144 C344 139 316 164 293 211" fill="none" stroke="#5B3A2A" stroke-width="8" stroke-linecap="round"/>
<path d="M330 146 C387 135 420 168 424 210 C397 184 374 182 350 199" fill="none" stroke="#5B3A2A" stroke-width="7" stroke-linecap="round"/>
<!-- eyes -->
<path d="M185 322 Q229 285 276 322 Q231 361 185 322 Z" fill="#FFF9ED" stroke="#171512" stroke-width="8"/>
<path d="M296 319 Q339 282 384 320 Q340 358 296 319 Z" fill="#FFF9ED" stroke="#171512" stroke-width="8"/>
<ellipse cx="247" cy="324" rx="13" ry="18" fill="#171512"/>
<ellipse cx="351" cy="322" rx="13" ry="18" fill="#171512"/>
<!-- brows -->
<path d="M181 262 Q229 238 276 260" fill="none" stroke="#171512" stroke-width="14" stroke-linecap="round"/>
<path d="M296 299 Q340 274 385 297" fill="none" stroke="#171512" stroke-width="14" stroke-linecap="round"/>
<!-- nose -->
<path d="M286 326 C280 367 267 392 282 405 C298 419 322 407 329 393" fill="none" stroke="#171512" stroke-width="8" stroke-linecap="round"/>
<!-- cheek shadow -->
<path d="M181 406 C203 444 218 465 243 478" fill="none" stroke="#D8895F" stroke-width="12" opacity=".5" stroke-linecap="round"/>
<!-- mouth -->
<path d="M267 377 Q301 405 337 376 Q305 435 267 377" fill="#FFF9ED" stroke="#171512" stroke-width="8"/>
<!-- hatching -->
<path d="M177 455 l18 10 M184 473 l18 10 M365 414 l18 -9 M372 432 l18 -8" stroke="#171512" stroke-width="4" opacity=".45"/>
</g>
<g id="arms-hold">
<path d="M153 690 C70 746 54 866 89 1005 L194 1006 C179 914 208 841 282 785 Z" fill="#171717" stroke="#171512" stroke-width="10"/>
<path d="M390 688 C470 744 490 870 452 1005 L349 1005 C370 910 342 837 282 786 Z" fill="#171717" stroke="#171512" stroke-width="10"/>
<path d="M126 815 C145 775 195 763 229 788 C254 807 251 844 224 858 C195 873 164 876 138 861 C119 850 115 835 126 815 Z" fill="#F1B17F" stroke="#171512" stroke-width="9"/>
<path d="M398 814 C380 776 331 764 298 789 C274 808 278 844 304 858 C333 873 362 875 388 860 C406 849 410 834 398 814 Z" fill="#F1B17F" stroke="#171512" stroke-width="9"/>
</g>
<!-- hoodie folds -->
<path d="M147 815 C190 841 209 896 208 968 M389 813 C349 847 331 905 332 974" fill="none" stroke="#4B4743" stroke-width="6"/>
</g><g id="cup-L" transform="translate(630 1180) scale(1.1)">
<path d="M8 10 Q75 -6 142 10 L126 220 Q72 243 24 220 Z" fill="#FFF9ED" stroke="#171512" stroke-width="8" stroke-linejoin="round"/>
<path d="M12 26 Q72 12 140 26 L134 70 Q70 54 18 68 Z" fill="#D74332" opacity=".96"/>
<path d="M30 112 C62 93 93 122 120 101" fill="none" stroke="#D8CAB0" stroke-width="6" stroke-linecap="round"/>
<text x="75" y="154" text-anchor="middle" font-family="Arial,sans-serif" font-size="34" font-weight="900" fill="#171512">L</text>
<path d="M40 -20 L100 -20" stroke="#171512" stroke-width="10" stroke-linecap="round"/>
<path d="M90 -20 L118 -105" stroke="#171512" stroke-width="9" stroke-linecap="round"/>
</g><path d="M615 1145 C720 1080 850 1088 940 1110" fill="none" stroke="#D74332" stroke-width="10" stroke-linecap="round" opacity=".7"/></svg>