<svg xmlns="http://www.w3.org/2000/svg" viewBox="0 0 1080 1920"><rect width="1080" height="1920" fill="#F3E8D1"/><g stroke="#111" stroke-width="18" stroke-linecap="round" stroke-linejoin="round"><path d="M120 300 H960 L760 780 H320 Z" fill="#FFF7E8"/><path d="M320 780 L430 1120 H650 L760 780" fill="#fff"/><path d="M170 370 H910 M220 520 H860"/><g fill="#F6C945"><rect x="160" y="335" width="110" height="95" rx="22"/><rect x="810" y="335" width="110" height="95" rx="22"/><circle cx="340" cy="600" r="55"/><circle cx="740" cy="600" r="55"/></g><circle cx="540" cy="930" r="105" fill="#F5D2B7"/><circle cx="502" cy="915" r="9" fill="#111" stroke="none"/><circle cx="578" cy="915" r="9" fill="#111" stroke="none"/><path d="M510 980 Q540 1000 570 980" fill="none"/><path d="M390 1180 Q540 1080 690 1180 L665 1580 H415 Z" fill="#111"/><path d="M500 1145 L540 1235 L580 1145" fill="#fff"/><path d="M540 1235 L505 1400 L575 1400 Z" fill="#F6C945"/><path d="M400 1225 L310 1455 M680 1225 L770 1455"/><circle cx="305" cy="1470" r="43" fill="#F5D2B7"/><circle cx="775" cy="1470" r="43" fill="#F5D2B7"/><path d="M540 250 V160"/><path d="M540 160 L490 225 M540 160 L590 225" fill="none"/><path d="M540 770 V670"/><path d="M540 670 L490 735 M540 670 L590 735" fill="none"/></g><text x="540" y="1730" text-anchor="middle" font-family="sans-serif" font-size="72" font-weight="700" fill="#111">IL CHECKOUT È UN IMBUTO</text></svg>