<svg xmlns="http://www.w3.org/2000/svg" viewBox="0 0 1080 1920"><rect width="1080" height="1920" fill="#F7EDD9"/><path d="M70 1500Q350 1410 1010 1500V1860H70Z" fill="#B98252" stroke="#171512" stroke-width="12"/><path d="M100 260H980V1080H100Z" fill="#E9D5AF" stroke="#171512" stroke-width="14"/><rect x="175" y="340" width="730" height="590" rx="30" fill="#292725"/><rect x="245" y="430" width="590" height="300" rx="28" fill="#F3E6CC" stroke="#171512" stroke-width="10"/><text x="540" y="535" text-anchor="middle" font-family="sans-serif" font-size="46" font-weight="700" fill="#C93228">59,88 €</text><text x="540" y="630" text-anchor="middle" font-family="sans-serif" font-size="34" fill="#171512">ADDEBITO OGGI</text><path d="M380 1540Q350 1300 430 1130Q510 990 650 1000Q790 1060 815 1240Q820 1410 765 1540Z" fill="#171717" stroke="#171512" stroke-width="14"/><path d="M485 1090Q510 940 640 915Q765 960 750 1100Q715 1210 610 1225Q500 1185 485 1090Z" fill="#E7A16F" stroke="#171512" stroke-width="12"/><path d="M490 1010Q530 880 655 905Q760 925 780 1030Q700 970 640 995Q575 950 490 1010Z" fill="#171512"/><path d="M530 1060q35 0 62 25M650 1055q35 5 62 30" fill="none" stroke="#171512" stroke-width="11"/><path d="M585 1150q45-30 85 8" fill="none" stroke="#171512" stroke-width="10"/><path d="M435 1290Q295 1200 250 1010" fill="none" stroke="#171512" stroke-width="60" stroke-linecap="round"/><path d="M250 1010q-12-58 32-80q48 4 52 53" fill="#E7A16F" stroke="#171512" stroke-width="10"/><path d="M210 900l-65-55M235 880l0-85" stroke="#C93228" stroke-width="14" stroke-linecap="round"/></svg>