<svg xmlns="http://www.w3.org/2000/svg" viewBox="0 0 1080 1920"><rect width="1080" height="1920" fill="#F3E6CC"/><g stroke="#171512" stroke-width="11" stroke-linecap="round" stroke-linejoin="round"><path fill="#D8B47C" d="M70 180H1010V1570H70Z"/><path fill="#292725" d="M110 260H600V650H110Z"/><path fill="#D74332" d="M150 310H560V445H150Z"/><text x="355" y="395" text-anchor="middle" font-family="sans-serif" font-size="48" font-weight="700" fill="#F7EDD9" stroke="none">7 GIORNI</text><path fill="#CFA66F" d="M720 310Q850 270 970 330V820Q850 850 720 810Z"/><path fill="#F7EDD9" d="M755 365H935V750H755Z"/><text x="845" y="470" text-anchor="middle" font-family="sans-serif" font-size="40" font-weight="700" fill="#171512" stroke="none">12,99 €</text><path fill="#171717" d="M250 1030Q330 900 470 950Q570 1000 590 1190L560 1450Q390 1490 220 1420L210 1180Q215 1090 250 1030Z"/><path fill="#E7A16F" d="M285 800Q315 675 445 685Q560 700 565 825Q555 930 455 970Q345 960 285 875Z"/><path fill="#171512" d="M275 790Q300 645 430 640Q545 650 580 765Q525 720 500 740Q465 660 420 710Q360 660 320 750Z"/><path fill="none" d="M335 820Q370 790 405 820M455 815Q490 790 520 815M390 900Q430 910 475 900M470 1120Q610 1060 730 790"/><path fill="#E7A16F" d="M705 760Q755 740 785 780Q800 820 760 845Q715 850 690 810Z"/><path fill="#F7EDD9" d="M620 1100H930V1280H620Z"/><text x="775" y="1205" text-anchor="middle" font-family="sans-serif" font-size="38" font-weight="700" fill="#171512" stroke="none">POI PAGHI</text></g></svg>