<svg xmlns="http://www.w3.org/2000/svg" width="1080" height="1920" viewBox="0 0 1080 1920"><rect width="1080" height="1920" fill="#F3E6CC"/><path d="M70 220H1010V1760H70Z" fill="#E8D4AE" stroke="#171512" stroke-width="12"/><path d="M95 380H985M95 680H985M95 980H985M95 1280H985M95 1580H985" fill="none" stroke="#5B4939" stroke-width="9"/><rect x="720" y="285" width="240" height="150" rx="24" fill="#F7EDD9" stroke="#171512" stroke-width="10"/><text x="840" y="375" text-anchor="middle" font-family="sans-serif" font-size="52" font-weight="800" fill="#D74332">4 €</text><g stroke="#171512" stroke-linecap="round" stroke-linejoin="round"><path d="M390 585C410 500 480 465 555 500C610 525 630 600 600 680C575 750 520 790 455 770C390 748 360 680 390 585Z" fill="#E7A16F" stroke-width="14"/><path d="M372 595C355 515 405 430 505 420C590 412 655 465 660 550C625 520 595 500 560 492C525 475 485 505 455 480C430 525 400 555 372 595Z" fill="#171717" stroke-width="12"/><path d="M430 640Q455 620 480 640M525 640Q550 620 575 640" fill="none" stroke-width="11"/><circle cx="463" cy="640" r="7" fill="#171512"/><circle cx="558" cy="640" r="7" fill="#171512"/><path d="M455 730Q500 748 545 728" fill="none" stroke-width="10"/><path d="M360 820C410 775 575 775 635 835L700 1320C610 1390 390 1390 300 1315Z" fill="#171717" stroke-width="15"/><path d="M370 960C300 1010 250 1110 220 1220" fill="none" stroke-width="34"/><path d="M570 1040C650 990 730 900 790 850" fill="none" stroke-width="34"/></g><g transform="translate(735 1080)" stroke="#171512" stroke-width="10"><path d="M0 0h145v260h-145z" fill="#D74332"/><path d="M18-35h110v55h-110z" fill="#F7EDD9"/></g></svg>