<svg xmlns="http://www.w3.org/2000/svg" width="1080" height="1920" viewBox="0 0 1080 1920">
<rect width="1080" height="1920" fill="#F1E8D2"/>
<g stroke="#151515" stroke-width="18" stroke-linecap="round" stroke-linejoin="round">
  <line x1="540" y1="320" x2="540" y2="1120"/>
  <rect x="120" y="430" width="330" height="430" rx="35" fill="#FFFDF7"/>
  <path d="M210 610 h150 l45 150 H165 Z" fill="#F5C842"/><circle cx="215" cy="815" r="26" fill="#151515"/><circle cx="350" cy="815" r="26" fill="#151515"/>
  <circle cx="770" cy="620" r="170" fill="#FFFDF7"/><circle cx="770" cy="620" r="105" fill="none"/><line x1="770" y1="620" x2="770" y2="545"/><line x1="770" y1="620" x2="835" y2="660"/>
  <rect x="745" y="420" width="50" height="75" rx="15" fill="#151515"/><rect x="745" y="745" width="50" height="75" rx="15" fill="#151515"/>
</g>
<g transform="translate(540 1370)" stroke="#151515" stroke-width="18" stroke-linecap="round" stroke-linejoin="round">
 <circle r="125" fill="#FFFDF7"/><circle cx="-40" cy="-20" r="10" fill="#151515"/><circle cx="40" cy="-20" r="10" fill="#151515"/><path d="M-30 45 Q0 55 30 45" fill="none"/>
 <path d="M-55 115 L-110 390 L110 390 L55 115 Z" fill="#151515"/><path d="M-32 120 L0 210 L32 120" fill="#FFFDF7"/>
 <line x1="-85" y1="220" x2="-300" y2="-40"/><line x1="85" y1="220" x2="300" y2="-40"/>
</g>
<g font-family="Arial,sans-serif" font-weight="800" fill="#151515"><text x="285" y="975" text-anchor="middle" font-size="58">OGNI GIORNO</text><text x="770" y="975" text-anchor="middle" font-size="58">LUSSO</text></g>
</svg>