<svg xmlns="http://www.w3.org/2000/svg" viewBox="0 0 1080 1920"><rect width="1080" height="1920" fill="#F7EDD9"/><path fill="#51433B" stroke="#171512" stroke-width="14" d="M80 240H1000V1500H80Z"/><path fill="#F3E6CC" stroke="#171512" stroke-width="14" d="M520 330H930V1150H520Z"/><path fill="#D74332" stroke="#171512" stroke-width="14" d="M590 420H860V570H590Z"/><text x="725" y="520" text-anchor="middle" font-family="sans-serif" font-size="64" font-weight="700" fill="#fff">09:58</text><path fill="#E7A16F" stroke="#171512" stroke-width="15" d="M160 620Q290 510 410 620L420 850Q290 925 165 845Z"/><path fill="#171512" stroke="#171512" stroke-width="15" d="M140 640Q180 485 330 510Q440 535 435 680Q365 620 305 660Q235 600 140 640Z"/><path fill="#171717" stroke="#171512" stroke-width="15" d="M100 870Q290 780 480 890L510 1510Q290 1580 80 1490Z"/><path d="M420 1070Q570 960 680 850" fill="none" stroke="#171512" stroke-width="18" stroke-linecap="round"/></svg>