<svg xmlns="http://www.w3.org/2000/svg" viewBox="0 0 1080 1920"><rect width="1080" height="1920" fill="#F3E6CC"/><path fill="#704D39" stroke="#171512" stroke-width="14" d="M70 250H1010V1510H70Z"/><path fill="#F7EDD9" stroke="#171512" stroke-width="14" d="M610 340H940V1080H610Z"/><path fill="#D74332" stroke="#171512" stroke-width="14" d="M660 430H890V570H660Z"/><text x="775" y="525" text-anchor="middle" font-family="sans-serif" font-size="58" font-weight="700" fill="#fff">00:00</text><path fill="#E7A16F" stroke="#171512" stroke-width="15" d="M190 590Q340 470 480 600L490 850Q340 930 195 840Z"/><path fill="#171512" stroke="#171512" stroke-width="15" d="M170 620Q210 450 390 485Q510 510 505 675Q420 605 350 650Q270 585 170 620Z"/><path fill="#171717" stroke="#171512" stroke-width="15" d="M120 870Q345 760 560 890L590 1530Q340 1610 95 1500Z"/><path d="M250 720q40-18 78 0M395 720q40-18 78 0M315 805q55 35 110 0M500 1060Q650 980 770 900" fill="none" stroke="#171512" stroke-width="18" stroke-linecap="round"/></svg>