<svg xmlns="http://www.w3.org/2000/svg" viewBox="0 0 1080 1920"><rect width="1080" height="1920" fill="#F3E6CC"/><g stroke="#171512" stroke-width="12"><path fill="#C89A62" d="M80 240H1000V1500H80Z"/><path fill="#F7EDD9" d="M110 320H970V700H110Z"/><path fill="#D74332" d="M650 390h250v230H650z"/></g><g stroke="#171512" stroke-width="14" stroke-linecap="round" stroke-linejoin="round"><path fill="#E7A16F" d="M390 780Q460 690 555 730Q650 775 645 900Q620 1015 510 1020Q405 1005 375 900Q365 830 390 780Z"/><path fill="#171512" d="M380 815Q410 690 535 700Q640 710 670 810Q605 780 565 795Q525 735 490 795Q445 750 380 815Z"/><path fill="#171717" d="M285 1050Q510 970 735 1080L800 1690H235Z"/><path fill="none" d="M435 855q25-18 50 0M550 850q30-18 58 0M495 930q45 30 90 0"/><path fill="#E7A16F" d="M675 1190Q760 1120 825 1040Q855 1005 885 1030Q915 1060 880 1105Q800 1215 705 1300Z"/></g><g font-family="sans-serif" font-weight="700" fill="#171512"><rect x="690" y="730" width="260" height="150" rx="25" fill="#F7EDD9" stroke="#171512" stroke-width="10"/><text x="735" y="825" font-size="58">350 g</text></g></svg>